<mxfile host="app.diagrams.net" modified="2022-08-19T03:06:30.519Z" agent="5.0 (Windows NT 10.0; Win64; x64) AppleWebKit/537.36 (KHTML, like Gecko) Chrome/104.0.0.0 Safari/537.36" etag="-E5Kh0MvTH2LlaW84uRx" version="20.2.5" type="github">
  <diagram id="CEDhhPOFZJCGy8is60iT" name="페이지-1">
    <mxGraphModel dx="4264" dy="3039" grid="1" gridSize="10" guides="1" tooltips="1" connect="1" arrows="1" fold="1" page="1" pageScale="1" pageWidth="827" pageHeight="1169" math="0" shadow="0">
      <root>
        <mxCell id="0" />
        <mxCell id="1" parent="0" />
        <mxCell id="Dzdg2uz1OPXHUZHbZTjD-116" value="&lt;h2&gt;현 스프린트 기준 통신 플로우&lt;/h2&gt;" style="rounded=1;whiteSpace=wrap;fillColor=none;strokeWidth=4;strokeColor=#6600CC;labelPosition=center;verticalLabelPosition=top;align=center;verticalAlign=bottom;fontFamily=Tahoma;html=1;fontStyle=1" vertex="1" parent="1">
          <mxGeometry x="-486.75" y="532" width="1730" height="590" as="geometry" />
        </mxCell>
        <mxCell id="Dzdg2uz1OPXHUZHbZTjD-112" value="&lt;h3&gt;&lt;font color=&quot;#000000&quot;&gt;SERVER (기능 단위 서비스)&lt;/font&gt;&lt;/h3&gt;" style="rounded=0;whiteSpace=wrap;html=1;fontFamily=Tahoma;fontSize=16;fontColor=#FF0000;strokeColor=#CC0066;strokeWidth=4;fillColor=none;labelPosition=center;verticalLabelPosition=top;align=center;verticalAlign=bottom;" vertex="1" parent="1">
          <mxGeometry x="-546.75" y="-749" width="1850" height="1170" as="geometry" />
        </mxCell>
        <mxCell id="Dzdg2uz1OPXHUZHbZTjD-134" value="&lt;h3&gt;third-party&lt;/h3&gt;" style="rounded=1;whiteSpace=wrap;fillColor=none;strokeWidth=4;strokeColor=#A85400;labelPosition=center;verticalLabelPosition=top;align=center;verticalAlign=bottom;fontFamily=Tahoma;html=1;fontStyle=1;fontColor=#000000;" vertex="1" parent="1">
          <mxGeometry x="-466.75" y="-251" width="421.75" height="141" as="geometry" />
        </mxCell>
        <mxCell id="Dzdg2uz1OPXHUZHbZTjD-1" value="&lt;h2&gt;FRONT (사이트 단위 서비스)&lt;/h2&gt;" style="rounded=1;whiteSpace=wrap;fillColor=none;strokeWidth=4;strokeColor=#6600CC;labelPosition=center;verticalLabelPosition=top;align=center;verticalAlign=bottom;fontFamily=Tahoma;html=1;fontStyle=1" vertex="1" parent="1">
          <mxGeometry x="187.25" y="-988" width="382" height="140" as="geometry" />
        </mxCell>
        <mxCell id="Dzdg2uz1OPXHUZHbZTjD-45" value="" style="endArrow=none;html=1;rounded=0;fontFamily=Tahoma;fontSize=16;fontColor=#FF0000;strokeColor=#000000;strokeWidth=3;entryX=0.134;entryY=0.621;entryDx=0;entryDy=0;entryPerimeter=0;" edge="1" parent="1">
          <mxGeometry width="50" height="50" relative="1" as="geometry">
            <mxPoint x="783.25" y="-379" as="sourcePoint" />
            <mxPoint x="473.25" y="-379" as="targetPoint" />
          </mxGeometry>
        </mxCell>
        <mxCell id="Dzdg2uz1OPXHUZHbZTjD-18" value="&lt;h3&gt;&lt;br&gt;&lt;/h3&gt;" style="rounded=1;whiteSpace=wrap;fillColor=none;strokeWidth=4;strokeColor=#FF8000;labelPosition=center;verticalLabelPosition=top;align=center;verticalAlign=bottom;fontFamily=Tahoma;html=1;fontStyle=1;fontColor=#FF8000;" vertex="1" parent="1">
          <mxGeometry x="121.5" y="-459" width="610" height="580" as="geometry" />
        </mxCell>
        <mxCell id="5Zf7YVjjMwptCTnezBOh-1" value="MEMBERS-WEB" style="sketch=0;points=[[0,0,0],[0.25,0,0],[0.5,0,0],[0.75,0,0],[1,0,0],[0,1,0],[0.25,1,0],[0.5,1,0],[0.75,1,0],[1,1,0],[0,0.25,0],[0,0.5,0],[0,0.75,0],[1,0.25,0],[1,0.5,0],[1,0.75,0]];outlineConnect=0;fontColor=#232F3E;gradientColor=#945DF2;gradientDirection=north;fillColor=#5A30B5;strokeColor=#ffffff;dashed=0;verticalLabelPosition=bottom;verticalAlign=top;align=center;html=1;fontSize=12;fontStyle=0;aspect=fixed;shape=mxgraph.aws4.resourceIcon;resIcon=mxgraph.aws4.cloudfront;fontFamily=Tahoma;" parent="1" vertex="1">
          <mxGeometry x="219.25" y="-968" width="78" height="78" as="geometry" />
        </mxCell>
        <mxCell id="5Zf7YVjjMwptCTnezBOh-2" value="MIDAS-WEB" style="sketch=0;points=[[0,0,0],[0.25,0,0],[0.5,0,0],[0.75,0,0],[1,0,0],[0,1,0],[0.25,1,0],[0.5,1,0],[0.75,1,0],[1,1,0],[0,0.25,0],[0,0.5,0],[0,0.75,0],[1,0.25,0],[1,0.5,0],[1,0.75,0]];outlineConnect=0;fontColor=#232F3E;gradientColor=#945DF2;gradientDirection=north;fillColor=#5A30B5;strokeColor=#ffffff;dashed=0;verticalLabelPosition=bottom;verticalAlign=top;align=center;html=1;fontSize=12;fontStyle=0;aspect=fixed;shape=mxgraph.aws4.resourceIcon;resIcon=mxgraph.aws4.cloudfront;fontFamily=Tahoma;" parent="1" vertex="1">
          <mxGeometry x="339.25" y="-968" width="78" height="78" as="geometry" />
        </mxCell>
        <mxCell id="5Zf7YVjjMwptCTnezBOh-3" value="BO-WEB" style="sketch=0;points=[[0,0,0],[0.25,0,0],[0.5,0,0],[0.75,0,0],[1,0,0],[0,1,0],[0.25,1,0],[0.5,1,0],[0.75,1,0],[1,1,0],[0,0.25,0],[0,0.5,0],[0,0.75,0],[1,0.25,0],[1,0.5,0],[1,0.75,0]];outlineConnect=0;fontColor=#232F3E;gradientColor=#945DF2;gradientDirection=north;fillColor=#5A30B5;strokeColor=#ffffff;dashed=0;verticalLabelPosition=bottom;verticalAlign=top;align=center;html=1;fontSize=12;fontStyle=0;aspect=fixed;shape=mxgraph.aws4.resourceIcon;resIcon=mxgraph.aws4.cloudfront;fontFamily=Tahoma;" parent="1" vertex="1">
          <mxGeometry x="459.25" y="-968" width="78" height="78" as="geometry" />
        </mxCell>
        <mxCell id="Dzdg2uz1OPXHUZHbZTjD-4" value="client-alb" style="outlineConnect=0;dashed=0;verticalLabelPosition=bottom;verticalAlign=top;align=center;html=1;shape=mxgraph.aws3.application_load_balancer;fillColor=#F58534;gradientColor=none;fontFamily=Tahoma;strokeColor=#FF0000;strokeWidth=4;" vertex="1" parent="1">
          <mxGeometry x="319.25" y="-579" width="69" height="72" as="geometry" />
        </mxCell>
        <mxCell id="Dzdg2uz1OPXHUZHbZTjD-5" value="backoffice-alb" style="outlineConnect=0;dashed=0;verticalLabelPosition=bottom;verticalAlign=top;align=center;html=1;shape=mxgraph.aws3.application_load_balancer;fillColor=#F58534;gradientColor=none;fontFamily=Tahoma;strokeColor=#FF0000;strokeWidth=4;" vertex="1" parent="1">
          <mxGeometry x="464.75" y="-579" width="69" height="72" as="geometry" />
        </mxCell>
        <mxCell id="Dzdg2uz1OPXHUZHbZTjD-6" value="auth" style="outlineConnect=0;dashed=0;verticalLabelPosition=bottom;verticalAlign=top;align=center;html=1;shape=mxgraph.aws3.ec2;fillColor=#F58534;gradientColor=none;fontFamily=Tahoma;strokeColor=#FF0000;strokeWidth=4;" vertex="1" parent="1">
          <mxGeometry x="388.25" y="-405.5" width="76.5" height="93" as="geometry" />
        </mxCell>
        <mxCell id="Dzdg2uz1OPXHUZHbZTjD-7" value="member" style="outlineConnect=0;dashed=0;verticalLabelPosition=bottom;verticalAlign=top;align=center;html=1;shape=mxgraph.aws3.ec2;fillColor=#F58534;gradientColor=none;fontFamily=Tahoma;strokeColor=#FF0000;strokeWidth=4;" vertex="1" parent="1">
          <mxGeometry x="163.25" y="-229" width="76.5" height="93" as="geometry" />
        </mxCell>
        <mxCell id="Dzdg2uz1OPXHUZHbZTjD-8" value="account" style="outlineConnect=0;dashed=0;verticalLabelPosition=bottom;verticalAlign=top;align=center;html=1;shape=mxgraph.aws3.ec2;fillColor=#F58534;gradientColor=none;fontFamily=Tahoma;strokeColor=#FF0000;strokeWidth=4;" vertex="1" parent="1">
          <mxGeometry x="311.75" y="-229" width="76.5" height="93" as="geometry" />
        </mxCell>
        <mxCell id="Dzdg2uz1OPXHUZHbZTjD-9" value="product" style="outlineConnect=0;dashed=0;verticalLabelPosition=bottom;verticalAlign=top;align=center;html=1;shape=mxgraph.aws3.ec2;fillColor=#F58534;gradientColor=none;fontFamily=Tahoma;strokeColor=#FF0000;strokeWidth=4;" vertex="1" parent="1">
          <mxGeometry x="464.75" y="-229" width="76.5" height="93" as="geometry" />
        </mxCell>
        <mxCell id="Dzdg2uz1OPXHUZHbZTjD-10" value="system" style="outlineConnect=0;dashed=0;verticalLabelPosition=bottom;verticalAlign=top;align=center;html=1;shape=mxgraph.aws3.ec2;fillColor=#F58534;gradientColor=none;fontFamily=Tahoma;strokeColor=#FF0000;strokeWidth=4;" vertex="1" parent="1">
          <mxGeometry x="613.25" y="-229" width="76.5" height="93" as="geometry" />
        </mxCell>
        <mxCell id="Dzdg2uz1OPXHUZHbZTjD-12" value="" style="sketch=0;points=[[0,0,0],[0.25,0,0],[0.5,0,0],[0.75,0,0],[1,0,0],[0,1,0],[0.25,1,0],[0.5,1,0],[0.75,1,0],[1,1,0],[0,0.25,0],[0,0.5,0],[0,0.75,0],[1,0.25,0],[1,0.5,0],[1,0.75,0]];outlineConnect=0;fontColor=#232F3E;gradientColor=#4D72F3;gradientDirection=north;fillColor=#3334B9;strokeColor=#ffffff;dashed=0;verticalLabelPosition=bottom;verticalAlign=top;align=center;html=1;fontSize=12;fontStyle=0;aspect=fixed;shape=mxgraph.aws4.resourceIcon;resIcon=mxgraph.aws4.aurora;fontFamily=Tahoma;" vertex="1" parent="1">
          <mxGeometry x="161.75" y="1" width="78" height="78" as="geometry" />
        </mxCell>
        <mxCell id="Dzdg2uz1OPXHUZHbZTjD-13" value="" style="sketch=0;points=[[0,0,0],[0.25,0,0],[0.5,0,0],[0.75,0,0],[1,0,0],[0,1,0],[0.25,1,0],[0.5,1,0],[0.75,1,0],[1,1,0],[0,0.25,0],[0,0.5,0],[0,0.75,0],[1,0.25,0],[1,0.5,0],[1,0.75,0]];outlineConnect=0;fontColor=#232F3E;gradientColor=#4D72F3;gradientDirection=north;fillColor=#3334B9;strokeColor=#ffffff;dashed=0;verticalLabelPosition=bottom;verticalAlign=top;align=center;html=1;fontSize=12;fontStyle=0;aspect=fixed;shape=mxgraph.aws4.resourceIcon;resIcon=mxgraph.aws4.aurora;fontFamily=Tahoma;" vertex="1" parent="1">
          <mxGeometry x="310.75" y="1" width="78" height="78" as="geometry" />
        </mxCell>
        <mxCell id="Dzdg2uz1OPXHUZHbZTjD-14" value="" style="sketch=0;points=[[0,0,0],[0.25,0,0],[0.5,0,0],[0.75,0,0],[1,0,0],[0,1,0],[0.25,1,0],[0.5,1,0],[0.75,1,0],[1,1,0],[0,0.25,0],[0,0.5,0],[0,0.75,0],[1,0.25,0],[1,0.5,0],[1,0.75,0]];outlineConnect=0;fontColor=#232F3E;gradientColor=#4D72F3;gradientDirection=north;fillColor=#3334B9;strokeColor=#ffffff;dashed=0;verticalLabelPosition=bottom;verticalAlign=top;align=center;html=1;fontSize=12;fontStyle=0;aspect=fixed;shape=mxgraph.aws4.resourceIcon;resIcon=mxgraph.aws4.aurora;fontFamily=Tahoma;" vertex="1" parent="1">
          <mxGeometry x="460.25" y="1" width="78" height="78" as="geometry" />
        </mxCell>
        <mxCell id="Dzdg2uz1OPXHUZHbZTjD-15" value="" style="sketch=0;points=[[0,0,0],[0.25,0,0],[0.5,0,0],[0.75,0,0],[1,0,0],[0,1,0],[0.25,1,0],[0.5,1,0],[0.75,1,0],[1,1,0],[0,0.25,0],[0,0.5,0],[0,0.75,0],[1,0.25,0],[1,0.5,0],[1,0.75,0]];outlineConnect=0;fontColor=#232F3E;gradientColor=#4D72F3;gradientDirection=north;fillColor=#3334B9;strokeColor=#ffffff;dashed=0;verticalLabelPosition=bottom;verticalAlign=top;align=center;html=1;fontSize=12;fontStyle=0;aspect=fixed;shape=mxgraph.aws4.resourceIcon;resIcon=mxgraph.aws4.aurora;fontFamily=Tahoma;" vertex="1" parent="1">
          <mxGeometry x="612.5" y="1" width="78" height="78" as="geometry" />
        </mxCell>
        <mxCell id="Dzdg2uz1OPXHUZHbZTjD-16" value="Amazon ElastiCache for Redis" style="sketch=0;outlineConnect=0;fontColor=#232F3E;gradientColor=none;strokeColor=#ffffff;fillColor=#232F3E;dashed=0;verticalLabelPosition=middle;verticalAlign=bottom;align=center;html=1;whiteSpace=wrap;fontSize=10;fontStyle=1;spacing=3;shape=mxgraph.aws4.productIcon;prIcon=mxgraph.aws4.elasticache_for_redis;fontFamily=Tahoma;" vertex="1" parent="1">
          <mxGeometry x="793.25" y="-405.5" width="80" height="120" as="geometry" />
        </mxCell>
        <mxCell id="Dzdg2uz1OPXHUZHbZTjD-17" value="" style="outlineConnect=0;dashed=0;verticalLabelPosition=bottom;verticalAlign=top;align=center;html=1;shape=mxgraph.aws3.virtual_private_cloud;fillColor=#F58534;gradientColor=none;fontFamily=Tahoma;strokeColor=#FF0000;strokeWidth=4;" vertex="1" parent="1">
          <mxGeometry x="113.25" y="-469" width="79.5" height="54" as="geometry" />
        </mxCell>
        <mxCell id="Dzdg2uz1OPXHUZHbZTjD-22" value="" style="endArrow=none;html=1;rounded=0;fontFamily=Tahoma;fontColor=#FF8000;strokeWidth=7;strokeColor=#00FFFF;" edge="1" parent="1">
          <mxGeometry width="50" height="50" relative="1" as="geometry">
            <mxPoint x="1133.25" y="-663.5" as="sourcePoint" />
            <mxPoint x="1183.25" y="-663.5" as="targetPoint" />
          </mxGeometry>
        </mxCell>
        <mxCell id="Dzdg2uz1OPXHUZHbZTjD-23" value="" style="endArrow=none;html=1;rounded=0;fontFamily=Tahoma;fontColor=#000000;strokeWidth=7;strokeColor=#FF0000;fontStyle=1;labelPosition=right;verticalLabelPosition=middle;align=left;verticalAlign=middle;spacingRight=10;" edge="1" parent="1">
          <mxGeometry width="50" height="50" relative="1" as="geometry">
            <mxPoint x="1133.25" y="-703.5" as="sourcePoint" />
            <mxPoint x="1183.25" y="-703.5" as="targetPoint" />
            <Array as="points">
              <mxPoint x="1163.25" y="-703.5" />
            </Array>
          </mxGeometry>
        </mxCell>
        <mxCell id="Dzdg2uz1OPXHUZHbZTjD-24" value="&lt;span style=&quot;font-size: 16px;&quot;&gt;요청&lt;/span&gt;" style="text;html=1;strokeColor=none;fillColor=none;align=center;verticalAlign=middle;whiteSpace=wrap;rounded=0;fontFamily=Tahoma;fontColor=#000000;fontStyle=1;fontSize=16;" vertex="1" parent="1">
          <mxGeometry x="1180.25" y="-719" width="60" height="30" as="geometry" />
        </mxCell>
        <mxCell id="Dzdg2uz1OPXHUZHbZTjD-25" value="&lt;span style=&quot;font-size: 16px;&quot;&gt;응답&lt;/span&gt;" style="text;html=1;strokeColor=none;fillColor=none;align=center;verticalAlign=middle;whiteSpace=wrap;rounded=0;fontFamily=Tahoma;fontColor=#000000;fontStyle=1;fontSize=16;" vertex="1" parent="1">
          <mxGeometry x="1180.25" y="-679" width="60" height="30" as="geometry" />
        </mxCell>
        <mxCell id="Dzdg2uz1OPXHUZHbZTjD-27" value="" style="endArrow=none;html=1;rounded=0;fontFamily=Tahoma;fontSize=16;fontColor=#000000;strokeColor=#000000;strokeWidth=3;exitX=1;exitY=0.5;exitDx=0;exitDy=0;exitPerimeter=0;" edge="1" parent="1" source="Dzdg2uz1OPXHUZHbZTjD-4">
          <mxGeometry width="50" height="50" relative="1" as="geometry">
            <mxPoint x="403.25" y="-409" as="sourcePoint" />
            <mxPoint x="463.25" y="-543" as="targetPoint" />
          </mxGeometry>
        </mxCell>
        <mxCell id="Dzdg2uz1OPXHUZHbZTjD-30" value="" style="endArrow=classic;html=1;rounded=0;fontFamily=Tahoma;fontColor=#FF8000;strokeWidth=3;strokeColor=#00FFFF;" edge="1" parent="1">
          <mxGeometry width="50" height="50" relative="1" as="geometry">
            <mxPoint x="405.25" y="-414" as="sourcePoint" />
            <mxPoint x="405.25" y="-534" as="targetPoint" />
          </mxGeometry>
        </mxCell>
        <mxCell id="Dzdg2uz1OPXHUZHbZTjD-31" value="" style="endArrow=classic;html=1;rounded=0;fontFamily=Tahoma;fontColor=#FF0000;strokeWidth=3;strokeColor=#FF0000;" edge="1" parent="1">
          <mxGeometry width="50" height="50" relative="1" as="geometry">
            <mxPoint x="441.25" y="-532" as="sourcePoint" />
            <mxPoint x="441.25" y="-412" as="targetPoint" />
          </mxGeometry>
        </mxCell>
        <mxCell id="Dzdg2uz1OPXHUZHbZTjD-32" value="" style="endArrow=classic;html=1;rounded=0;fontFamily=Tahoma;fontColor=#FF0000;strokeWidth=3;strokeColor=#FF0000;entryX=0.618;entryY=0.362;entryDx=0;entryDy=0;entryPerimeter=0;" edge="1" parent="1" target="Dzdg2uz1OPXHUZHbZTjD-18">
          <mxGeometry width="50" height="50" relative="1" as="geometry">
            <mxPoint x="498.75" y="-479" as="sourcePoint" />
            <mxPoint x="498.75" y="-359" as="targetPoint" />
          </mxGeometry>
        </mxCell>
        <mxCell id="Dzdg2uz1OPXHUZHbZTjD-34" value="" style="endArrow=classic;html=1;rounded=0;fontFamily=Tahoma;fontColor=#FF0000;strokeWidth=3;strokeColor=#FF0000;" edge="1" parent="1">
          <mxGeometry width="50" height="50" relative="1" as="geometry">
            <mxPoint x="499.02" y="-365.96000000000004" as="sourcePoint" />
            <mxPoint x="651.25" y="-249" as="targetPoint" />
            <Array as="points">
              <mxPoint x="653.25" y="-366" />
            </Array>
          </mxGeometry>
        </mxCell>
        <mxCell id="Dzdg2uz1OPXHUZHbZTjD-35" value="" style="endArrow=classic;html=1;rounded=0;fontFamily=Tahoma;fontColor=#FF0000;strokeWidth=3;strokeColor=#FF0000;entryX=0.618;entryY=0.362;entryDx=0;entryDy=0;entryPerimeter=0;" edge="1" parent="1">
          <mxGeometry width="50" height="50" relative="1" as="geometry">
            <mxPoint x="353.52000000000004" y="-479" as="sourcePoint" />
            <mxPoint x="353.25000000000006" y="-249.03999999999996" as="targetPoint" />
          </mxGeometry>
        </mxCell>
        <mxCell id="Dzdg2uz1OPXHUZHbZTjD-36" value="" style="endArrow=classic;html=1;rounded=0;fontFamily=Tahoma;fontColor=#FF0000;strokeWidth=3;strokeColor=#FF0000;" edge="1" parent="1">
          <mxGeometry width="50" height="50" relative="1" as="geometry">
            <mxPoint x="353.4799999999995" y="-365.96000000000004" as="sourcePoint" />
            <mxPoint x="201.2499999999995" y="-249" as="targetPoint" />
            <Array as="points">
              <mxPoint x="199.2499999999995" y="-366" />
            </Array>
          </mxGeometry>
        </mxCell>
        <mxCell id="Dzdg2uz1OPXHUZHbZTjD-39" value="" style="endArrow=none;html=1;rounded=0;fontFamily=Tahoma;fontSize=16;fontColor=#FF0000;strokeColor=#000000;strokeWidth=3;entryX=0.134;entryY=0.621;entryDx=0;entryDy=0;entryPerimeter=0;exitX=0.134;exitY=0.776;exitDx=0;exitDy=0;exitPerimeter=0;" edge="1" parent="1" source="Dzdg2uz1OPXHUZHbZTjD-18" target="Dzdg2uz1OPXHUZHbZTjD-18">
          <mxGeometry width="50" height="50" relative="1" as="geometry">
            <mxPoint x="184.25" y="-29" as="sourcePoint" />
            <mxPoint x="234.25" y="-79" as="targetPoint" />
          </mxGeometry>
        </mxCell>
        <mxCell id="Dzdg2uz1OPXHUZHbZTjD-42" value="" style="endArrow=none;html=1;rounded=0;fontFamily=Tahoma;fontSize=16;fontColor=#FF0000;strokeColor=#000000;strokeWidth=3;entryX=0.134;entryY=0.621;entryDx=0;entryDy=0;entryPerimeter=0;exitX=0.134;exitY=0.776;exitDx=0;exitDy=0;exitPerimeter=0;" edge="1" parent="1">
          <mxGeometry width="50" height="50" relative="1" as="geometry">
            <mxPoint x="349.4999999999998" y="-9.100000000000023" as="sourcePoint" />
            <mxPoint x="349.4999999999998" y="-99.00000000000011" as="targetPoint" />
          </mxGeometry>
        </mxCell>
        <mxCell id="Dzdg2uz1OPXHUZHbZTjD-43" value="" style="endArrow=none;html=1;rounded=0;fontFamily=Tahoma;fontSize=16;fontColor=#FF0000;strokeColor=#000000;strokeWidth=3;entryX=0.134;entryY=0.621;entryDx=0;entryDy=0;entryPerimeter=0;exitX=0.134;exitY=0.776;exitDx=0;exitDy=0;exitPerimeter=0;" edge="1" parent="1">
          <mxGeometry width="50" height="50" relative="1" as="geometry">
            <mxPoint x="498.75" y="-9.099999999999909" as="sourcePoint" />
            <mxPoint x="498.75" y="-99" as="targetPoint" />
          </mxGeometry>
        </mxCell>
        <mxCell id="Dzdg2uz1OPXHUZHbZTjD-44" value="" style="endArrow=none;html=1;rounded=0;fontFamily=Tahoma;fontSize=16;fontColor=#FF0000;strokeColor=#000000;strokeWidth=3;entryX=0.134;entryY=0.621;entryDx=0;entryDy=0;entryPerimeter=0;exitX=0.134;exitY=0.776;exitDx=0;exitDy=0;exitPerimeter=0;" edge="1" parent="1">
          <mxGeometry width="50" height="50" relative="1" as="geometry">
            <mxPoint x="651" y="-9.099999999999909" as="sourcePoint" />
            <mxPoint x="651" y="-99" as="targetPoint" />
          </mxGeometry>
        </mxCell>
        <mxCell id="Dzdg2uz1OPXHUZHbZTjD-49" value="" style="strokeWidth=1;shadow=0;dashed=0;align=center;html=1;shape=mxgraph.mockup.text.callout;linkText=;textSize=17;textColor=#666666;callDir=NW;callStyle=line;fontSize=17;fontColor=#666666;align=left;verticalAlign=top;strokeColor=#666666;fontFamily=Tahoma;fillColor=none;" vertex="1" parent="1">
          <mxGeometry x="-86.75" y="-579" width="470" height="180" as="geometry" />
        </mxCell>
        <mxCell id="Dzdg2uz1OPXHUZHbZTjD-50" value="rpm-auth" style="fillColor=none;strokeColor=none;html=1;fontSize=11;fontStyle=0;align=left;fontColor=#596780;fontStyle=1;fontSize=11;fontFamily=Tahoma;" vertex="1" parent="1">
          <mxGeometry x="-86.75" y="-623" width="240" height="20" as="geometry" />
        </mxCell>
        <mxCell id="Dzdg2uz1OPXHUZHbZTjD-51" value="토큰 발급, 인증, 인가, API 사용 권한 처리" style="rounded=1;arcSize=9;align=left;spacingLeft=5;strokeColor=#4C9AFF;html=1;strokeWidth=2;fontSize=12;fontFamily=Tahoma;fontColor=#FF0000;fillColor=none;" vertex="1" parent="1">
          <mxGeometry x="-86.75" y="-598" width="290" height="33" as="geometry" />
        </mxCell>
        <mxCell id="Dzdg2uz1OPXHUZHbZTjD-52" value="" style="strokeWidth=1;shadow=0;dashed=0;align=center;html=1;shape=mxgraph.mockup.text.callout;linkText=;textSize=17;textColor=#666666;callDir=SW;callStyle=line;fontSize=17;fontColor=#666666;align=left;verticalAlign=bottom;strokeColor=#666666;fontFamily=Tahoma;fillColor=none;" vertex="1" parent="1">
          <mxGeometry x="-146.75" y="-159" width="300" height="240" as="geometry" />
        </mxCell>
        <mxCell id="Dzdg2uz1OPXHUZHbZTjD-54" value="rpm-member" style="fillColor=none;strokeColor=none;html=1;fontSize=11;fontStyle=0;align=left;fontColor=#596780;fontStyle=1;fontSize=11;fontFamily=Tahoma;" vertex="1" parent="1">
          <mxGeometry x="-366.75" y="10" width="240" height="20" as="geometry" />
        </mxCell>
        <mxCell id="Dzdg2uz1OPXHUZHbZTjD-55" value="마이다스 고객 회원 정보 관리 서비스" style="rounded=1;arcSize=9;align=left;spacingLeft=5;strokeColor=#4C9AFF;html=1;strokeWidth=2;fontSize=12;fontFamily=Tahoma;fontColor=#FF0000;fillColor=none;" vertex="1" parent="1">
          <mxGeometry x="-366.75" y="35" width="290" height="33" as="geometry" />
        </mxCell>
        <mxCell id="Dzdg2uz1OPXHUZHbZTjD-56" value="" style="strokeWidth=1;shadow=0;dashed=0;align=center;html=1;shape=mxgraph.mockup.text.callout;linkText=;textSize=17;textColor=#666666;callDir=SW;callStyle=line;fontSize=17;fontColor=#666666;align=left;verticalAlign=bottom;strokeColor=#666666;fontFamily=Tahoma;fillColor=none;" vertex="1" parent="1">
          <mxGeometry x="-96.75" y="91" width="300" height="140" as="geometry" />
        </mxCell>
        <mxCell id="Dzdg2uz1OPXHUZHbZTjD-57" value="rpm-member-rdb" style="fillColor=none;strokeColor=none;html=1;fontSize=11;fontStyle=0;align=left;fontColor=#596780;fontStyle=1;fontSize=11;fontFamily=Tahoma;" vertex="1" parent="1">
          <mxGeometry x="-316.75" y="161" width="240" height="20" as="geometry" />
        </mxCell>
        <mxCell id="Dzdg2uz1OPXHUZHbZTjD-58" value="고객 관련 정보 (써드파티 인증 정보, 프로필 등)" style="rounded=1;arcSize=9;align=left;spacingLeft=5;strokeColor=#4C9AFF;html=1;strokeWidth=2;fontSize=12;fontFamily=Tahoma;fontColor=#FF0000;fillColor=none;" vertex="1" parent="1">
          <mxGeometry x="-316.75" y="186" width="290" height="33" as="geometry" />
        </mxCell>
        <mxCell id="Dzdg2uz1OPXHUZHbZTjD-59" value="" style="strokeWidth=1;shadow=0;dashed=0;align=center;html=1;shape=mxgraph.mockup.text.callout;linkText=;textSize=17;textColor=#666666;callDir=NW;callStyle=line;fontSize=17;fontColor=#666666;align=left;verticalAlign=top;strokeColor=#666666;fontFamily=Tahoma;fillColor=none;" vertex="1" parent="1">
          <mxGeometry x="-118.75" y="-333" width="417.5" height="130" as="geometry" />
        </mxCell>
        <mxCell id="Dzdg2uz1OPXHUZHbZTjD-61" value="rpm-account" style="fillColor=none;strokeColor=none;html=1;fontSize=11;fontStyle=0;align=left;fontColor=#596780;fontStyle=1;fontSize=11;fontFamily=Tahoma;" vertex="1" parent="1">
          <mxGeometry x="-346.75" y="-379" width="240" height="20" as="geometry" />
        </mxCell>
        <mxCell id="Dzdg2uz1OPXHUZHbZTjD-62" value="미정, 다음 스프린트부터 들어갈 예정" style="rounded=1;arcSize=9;align=left;spacingLeft=5;strokeColor=#4C9AFF;html=1;strokeWidth=2;fontSize=12;fontFamily=Tahoma;fontColor=#FF0000;fillColor=none;" vertex="1" parent="1">
          <mxGeometry x="-346.75" y="-354" width="290" height="33" as="geometry" />
        </mxCell>
        <mxCell id="Dzdg2uz1OPXHUZHbZTjD-63" value="" style="strokeWidth=1;shadow=0;dashed=0;align=center;html=1;shape=mxgraph.mockup.text.callout;linkText=;textSize=17;textColor=#666666;callDir=SW;callStyle=line;fontSize=17;fontColor=#666666;align=left;verticalAlign=bottom;strokeColor=#666666;fontFamily=Tahoma;fillColor=none;" vertex="1" parent="1">
          <mxGeometry x="3.25" y="91" width="348.25" height="270" as="geometry" />
        </mxCell>
        <mxCell id="Dzdg2uz1OPXHUZHbZTjD-64" value="rpm-account-rdb" style="fillColor=none;strokeColor=none;html=1;fontSize=11;fontStyle=0;align=left;fontColor=#596780;fontStyle=1;fontSize=11;fontFamily=Tahoma;" vertex="1" parent="1">
          <mxGeometry x="-216.75" y="291" width="240" height="20" as="geometry" />
        </mxCell>
        <mxCell id="Dzdg2uz1OPXHUZHbZTjD-65" value="결제 정보" style="rounded=1;arcSize=9;align=left;spacingLeft=5;strokeColor=#4C9AFF;html=1;strokeWidth=2;fontSize=12;fontFamily=Tahoma;fontColor=#FF0000;fillColor=none;" vertex="1" parent="1">
          <mxGeometry x="-216.75" y="316" width="290" height="33" as="geometry" />
        </mxCell>
        <mxCell id="Dzdg2uz1OPXHUZHbZTjD-66" value="" style="strokeWidth=1;shadow=0;dashed=0;align=center;html=1;shape=mxgraph.mockup.text.callout;linkText=;textSize=17;textColor=#666666;callDir=NE;callStyle=line;fontSize=17;fontColor=#666666;align=right;verticalAlign=top;strokeColor=#666666;fontFamily=Tahoma;fillColor=none;" vertex="1" parent="1">
          <mxGeometry x="551.5" y="-295.5" width="451.75" height="100" as="geometry" />
        </mxCell>
        <mxCell id="Dzdg2uz1OPXHUZHbZTjD-68" value="rpm-system" style="fillColor=none;strokeColor=none;html=1;fontSize=11;fontStyle=0;align=left;fontColor=#596780;fontStyle=1;fontSize=11;fontFamily=Tahoma;" vertex="1" parent="1">
          <mxGeometry x="832.25" y="-134" width="240" height="20" as="geometry" />
        </mxCell>
        <mxCell id="Dzdg2uz1OPXHUZHbZTjD-69" value="RPM 시스템 환경 관리 서비스" style="rounded=1;arcSize=9;align=left;spacingLeft=5;strokeColor=#4C9AFF;html=1;strokeWidth=2;fontSize=12;fontFamily=Tahoma;fontColor=#FF0000;fillColor=none;" vertex="1" parent="1">
          <mxGeometry x="832.25" y="-109" width="180" height="33" as="geometry" />
        </mxCell>
        <mxCell id="Dzdg2uz1OPXHUZHbZTjD-70" value="" style="strokeWidth=1;shadow=0;dashed=0;align=center;html=1;shape=mxgraph.mockup.text.callout;linkText=;textSize=17;textColor=#666666;callDir=SE;callStyle=line;fontSize=17;fontColor=#666666;align=right;verticalAlign=bottom;strokeColor=#666666;fontFamily=Tahoma;fillColor=none;" vertex="1" parent="1">
          <mxGeometry x="493.25" y="91" width="210" height="280" as="geometry" />
        </mxCell>
        <mxCell id="Dzdg2uz1OPXHUZHbZTjD-71" value="rpm-system-rdb" style="fillColor=none;strokeColor=none;html=1;fontSize=11;fontStyle=0;align=left;fontColor=#596780;fontStyle=1;fontSize=11;fontFamily=Tahoma;" vertex="1" parent="1">
          <mxGeometry x="790.25" y="115" width="240" height="20" as="geometry" />
        </mxCell>
        <mxCell id="Dzdg2uz1OPXHUZHbZTjD-72" value="통합 관리자 정보 (약관, 관리자 계정, 메뉴 접근 권한 등)&amp;nbsp;" style="rounded=1;arcSize=9;align=left;spacingLeft=5;strokeColor=#4C9AFF;html=1;strokeWidth=2;fontSize=12;fontFamily=Tahoma;fontColor=#FF0000;fillColor=none;" vertex="1" parent="1">
          <mxGeometry x="790.25" y="140" width="390" height="33" as="geometry" />
        </mxCell>
        <mxCell id="Dzdg2uz1OPXHUZHbZTjD-74" value="" style="strokeWidth=1;shadow=0;dashed=0;align=center;html=1;shape=mxgraph.mockup.text.callout;linkText=;textSize=17;textColor=#666666;callDir=SE;callStyle=line;fontSize=17;fontColor=#666666;align=right;verticalAlign=bottom;strokeColor=#666666;fontFamily=Tahoma;fillColor=none;" vertex="1" parent="1">
          <mxGeometry x="658.25" y="86" width="200" height="100" as="geometry" />
        </mxCell>
        <mxCell id="Dzdg2uz1OPXHUZHbZTjD-75" value="rpm-product-rdb" style="fillColor=none;strokeColor=none;html=1;fontSize=11;fontStyle=0;align=left;fontColor=#596780;fontStyle=1;fontSize=11;fontFamily=Tahoma;" vertex="1" parent="1">
          <mxGeometry x="637.25" y="301" width="240" height="20" as="geometry" />
        </mxCell>
        <mxCell id="Dzdg2uz1OPXHUZHbZTjD-76" value="제품 관련 정보 (공지 사항, 다운로드, 제품 상세 설명 등)" style="rounded=1;arcSize=9;align=left;spacingLeft=5;strokeColor=#4C9AFF;html=1;strokeWidth=2;fontSize=12;fontFamily=Tahoma;fontColor=#FF0000;fillColor=none;" vertex="1" parent="1">
          <mxGeometry x="637.25" y="326" width="315" height="33" as="geometry" />
        </mxCell>
        <mxCell id="Dzdg2uz1OPXHUZHbZTjD-77" value="" style="strokeWidth=1;shadow=0;dashed=0;align=center;html=1;shape=mxgraph.mockup.text.callout;linkText=;textSize=17;textColor=#666666;callDir=SE;callStyle=line;fontSize=17;fontColor=#666666;align=right;verticalAlign=bottom;strokeColor=#666666;fontFamily=Tahoma;fillColor=none;" vertex="1" parent="1">
          <mxGeometry x="699.25" y="-164" width="200" height="100" as="geometry" />
        </mxCell>
        <mxCell id="Dzdg2uz1OPXHUZHbZTjD-80" value="" style="strokeWidth=1;shadow=0;dashed=0;align=center;html=1;shape=mxgraph.mockup.text.callout;linkText=;textSize=17;textColor=#666666;callDir=NE;callStyle=line;fontSize=17;fontColor=#666666;align=right;verticalAlign=top;strokeColor=#666666;fontFamily=Tahoma;fillColor=none;" vertex="1" parent="1">
          <mxGeometry x="830.25" y="-515" width="200" height="100" as="geometry" />
        </mxCell>
        <mxCell id="Dzdg2uz1OPXHUZHbZTjD-81" value="rpm-elastic-cache" style="fillColor=none;strokeColor=none;html=1;fontSize=11;fontStyle=0;align=left;fontColor=#596780;fontStyle=1;fontSize=11;fontFamily=Tahoma;" vertex="1" parent="1">
          <mxGeometry x="962.25" y="-559" width="240" height="20" as="geometry" />
        </mxCell>
        <mxCell id="Dzdg2uz1OPXHUZHbZTjD-82" value="RPM 토큰 및 세션 관리" style="rounded=1;arcSize=9;align=left;spacingLeft=5;strokeColor=#4C9AFF;html=1;strokeWidth=2;fontSize=12;fontFamily=Tahoma;fontColor=#FF0000;fillColor=none;" vertex="1" parent="1">
          <mxGeometry x="962.25" y="-534" width="180" height="33" as="geometry" />
        </mxCell>
        <mxCell id="Dzdg2uz1OPXHUZHbZTjD-85" value="" style="endArrow=classic;html=1;rounded=0;fontFamily=Tahoma;fontColor=#FF0000;strokeWidth=3;strokeColor=#FF0000;" edge="1" parent="1">
          <mxGeometry width="50" height="50" relative="1" as="geometry">
            <mxPoint x="373.25" y="-329" as="sourcePoint" />
            <mxPoint x="239.75" y="-249" as="targetPoint" />
          </mxGeometry>
        </mxCell>
        <mxCell id="Dzdg2uz1OPXHUZHbZTjD-87" value="" style="endArrow=classic;html=1;rounded=0;fontFamily=Tahoma;fontColor=#FF0000;strokeWidth=3;strokeColor=#00FFFF;" edge="1" parent="1">
          <mxGeometry width="50" height="50" relative="1" as="geometry">
            <mxPoint x="233.25" y="-269" as="sourcePoint" />
            <mxPoint x="366.75" y="-349" as="targetPoint" />
          </mxGeometry>
        </mxCell>
        <mxCell id="Dzdg2uz1OPXHUZHbZTjD-88" value="" style="endArrow=classic;html=1;rounded=0;fontFamily=Tahoma;fontColor=#FF0000;strokeWidth=3;strokeColor=#FF0000;" edge="1" parent="1">
          <mxGeometry width="50" height="50" relative="1" as="geometry">
            <mxPoint x="484.75" y="-323" as="sourcePoint" />
            <mxPoint x="618.25" y="-243" as="targetPoint" />
          </mxGeometry>
        </mxCell>
        <mxCell id="Dzdg2uz1OPXHUZHbZTjD-89" value="" style="endArrow=classic;html=1;rounded=0;fontFamily=Tahoma;fontColor=#FF0000;strokeWidth=3;strokeColor=#00FFFF;" edge="1" parent="1">
          <mxGeometry width="50" height="50" relative="1" as="geometry">
            <mxPoint x="621.75" y="-267" as="sourcePoint" />
            <mxPoint x="488.25" y="-347" as="targetPoint" />
          </mxGeometry>
        </mxCell>
        <mxCell id="Dzdg2uz1OPXHUZHbZTjD-90" value="rpm-product" style="fillColor=none;strokeColor=none;html=1;fontSize=11;fontStyle=0;align=left;fontColor=#596780;fontStyle=1;fontSize=11;fontFamily=Tahoma;" vertex="1" parent="1">
          <mxGeometry x="933.25" y="-339" width="240" height="20" as="geometry" />
        </mxCell>
        <mxCell id="Dzdg2uz1OPXHUZHbZTjD-91" value="RPM 제품 관련 서비스" style="rounded=1;arcSize=9;align=left;spacingLeft=5;strokeColor=#4C9AFF;html=1;strokeWidth=2;fontSize=12;fontFamily=Tahoma;fontColor=#FF0000;fillColor=none;" vertex="1" parent="1">
          <mxGeometry x="933.25" y="-314" width="180" height="33" as="geometry" />
        </mxCell>
        <mxCell id="Dzdg2uz1OPXHUZHbZTjD-92" value="" style="strokeWidth=1;shadow=0;dashed=0;align=center;html=1;shape=mxgraph.mockup.text.callout;linkText=;textSize=17;textColor=#666666;callDir=NW;callStyle=line;fontSize=17;fontColor=#666666;align=left;verticalAlign=top;strokeColor=#33001A;fontFamily=Tahoma;fillColor=none;" vertex="1" parent="1">
          <mxGeometry x="-266.75" y="-519" width="528" height="210" as="geometry" />
        </mxCell>
        <mxCell id="Dzdg2uz1OPXHUZHbZTjD-93" value="auth to member" style="fillColor=none;strokeColor=none;html=1;fontSize=11;fontStyle=0;align=left;fontColor=#596780;fontStyle=1;fontSize=11;fontFamily=Tahoma;" vertex="1" parent="1">
          <mxGeometry x="-483.75" y="-563" width="240" height="20" as="geometry" />
        </mxCell>
        <mxCell id="Dzdg2uz1OPXHUZHbZTjD-94" value="유효한 사용자 정보인지 요청 및 응답" style="rounded=1;arcSize=9;align=left;spacingLeft=5;strokeColor=#4C9AFF;html=1;strokeWidth=2;fontSize=12;fontFamily=Tahoma;fontColor=#FF0000;fillColor=none;" vertex="1" parent="1">
          <mxGeometry x="-483.75" y="-538" width="290" height="33" as="geometry" />
        </mxCell>
        <mxCell id="Dzdg2uz1OPXHUZHbZTjD-95" value="" style="strokeWidth=1;shadow=0;dashed=0;align=center;html=1;shape=mxgraph.mockup.text.callout;linkText=;textSize=17;textColor=#666666;callDir=NE;callStyle=line;fontSize=17;fontColor=#666666;align=right;verticalAlign=top;strokeColor=#33001A;fontFamily=Tahoma;fillColor=none;" vertex="1" parent="1">
          <mxGeometry x="577.25" y="-619" width="196" height="310" as="geometry" />
        </mxCell>
        <mxCell id="Dzdg2uz1OPXHUZHbZTjD-96" value="auth to system" style="fillColor=none;strokeColor=none;html=1;fontSize=11;fontStyle=0;align=left;fontColor=#596780;fontStyle=1;fontSize=11;fontFamily=Tahoma;" vertex="1" parent="1">
          <mxGeometry x="700.25" y="-664" width="240" height="20" as="geometry" />
        </mxCell>
        <mxCell id="Dzdg2uz1OPXHUZHbZTjD-97" value="유효한 관리자 계정 및 API 사용 권한 요청 및 응답" style="rounded=1;arcSize=9;align=left;spacingLeft=5;strokeColor=#4C9AFF;html=1;strokeWidth=2;fontSize=12;fontFamily=Tahoma;fontColor=#FF0000;fillColor=none;" vertex="1" parent="1">
          <mxGeometry x="700.25" y="-639" width="290" height="33" as="geometry" />
        </mxCell>
        <mxCell id="Dzdg2uz1OPXHUZHbZTjD-106" value="" style="endArrow=none;html=1;rounded=0;fontFamily=Tahoma;fontColor=#FF8000;strokeWidth=7;strokeColor=#00994D;" edge="1" parent="1">
          <mxGeometry width="50" height="50" relative="1" as="geometry">
            <mxPoint x="1133.25" y="-620.5" as="sourcePoint" />
            <mxPoint x="1183.25" y="-620.5" as="targetPoint" />
          </mxGeometry>
        </mxCell>
        <mxCell id="Dzdg2uz1OPXHUZHbZTjD-107" value="상호 통신" style="text;html=1;strokeColor=none;fillColor=none;align=center;verticalAlign=middle;whiteSpace=wrap;rounded=0;fontFamily=Tahoma;fontColor=#000000;fontStyle=1;fontSize=16;" vertex="1" parent="1">
          <mxGeometry x="1185.25" y="-636" width="86" height="30" as="geometry" />
        </mxCell>
        <mxCell id="Dzdg2uz1OPXHUZHbZTjD-109" value="" style="endArrow=none;html=1;rounded=0;fontFamily=Tahoma;fontSize=16;fontColor=#FF0000;strokeColor=#00994D;strokeWidth=3;" edge="1" parent="1">
          <mxGeometry width="50" height="50" relative="1" as="geometry">
            <mxPoint x="546.5" y="-179" as="sourcePoint" />
            <mxPoint x="606.5" y="-179" as="targetPoint" />
          </mxGeometry>
        </mxCell>
        <mxCell id="Dzdg2uz1OPXHUZHbZTjD-110" value="" style="endArrow=none;html=1;rounded=0;fontFamily=Tahoma;fontSize=16;fontColor=#FF0000;strokeColor=#00994D;strokeWidth=3;" edge="1" parent="1">
          <mxGeometry width="50" height="50" relative="1" as="geometry">
            <mxPoint x="396.5" y="-179" as="sourcePoint" />
            <mxPoint x="456.5" y="-179" as="targetPoint" />
          </mxGeometry>
        </mxCell>
        <mxCell id="Dzdg2uz1OPXHUZHbZTjD-111" value="" style="endArrow=none;html=1;rounded=0;fontFamily=Tahoma;fontSize=16;fontColor=#FF0000;strokeColor=#00994D;strokeWidth=3;" edge="1" parent="1">
          <mxGeometry width="50" height="50" relative="1" as="geometry">
            <mxPoint x="245.25" y="-179" as="sourcePoint" />
            <mxPoint x="305.25" y="-179" as="targetPoint" />
          </mxGeometry>
        </mxCell>
        <mxCell id="Dzdg2uz1OPXHUZHbZTjD-113" value="MEMBERS-WEB" style="sketch=0;points=[[0,0,0],[0.25,0,0],[0.5,0,0],[0.75,0,0],[1,0,0],[0,1,0],[0.25,1,0],[0.5,1,0],[0.75,1,0],[1,1,0],[0,0.25,0],[0,0.5,0],[0,0.75,0],[1,0.25,0],[1,0.5,0],[1,0.75,0]];outlineConnect=0;fontColor=#232F3E;gradientColor=#945DF2;gradientDirection=north;fillColor=#5A30B5;strokeColor=#ffffff;dashed=0;verticalLabelPosition=bottom;verticalAlign=top;align=center;html=1;fontSize=12;fontStyle=0;aspect=fixed;shape=mxgraph.aws4.resourceIcon;resIcon=mxgraph.aws4.cloudfront;fontFamily=Tahoma;" vertex="1" parent="1">
          <mxGeometry x="-320" y="767" width="78" height="78" as="geometry" />
        </mxCell>
        <mxCell id="Dzdg2uz1OPXHUZHbZTjD-114" value="MIDAS-WEB" style="sketch=0;points=[[0,0,0],[0.25,0,0],[0.5,0,0],[0.75,0,0],[1,0,0],[0,1,0],[0.25,1,0],[0.5,1,0],[0.75,1,0],[1,1,0],[0,0.25,0],[0,0.5,0],[0,0.75,0],[1,0.25,0],[1,0.5,0],[1,0.75,0]];outlineConnect=0;fontColor=#232F3E;gradientColor=#945DF2;gradientDirection=north;fillColor=#5A30B5;strokeColor=#ffffff;dashed=0;verticalLabelPosition=bottom;verticalAlign=top;align=center;html=1;fontSize=12;fontStyle=0;aspect=fixed;shape=mxgraph.aws4.resourceIcon;resIcon=mxgraph.aws4.cloudfront;fontFamily=Tahoma;" vertex="1" parent="1">
          <mxGeometry x="112" y="767" width="78" height="78" as="geometry" />
        </mxCell>
        <mxCell id="Dzdg2uz1OPXHUZHbZTjD-115" value="BO-WEB" style="sketch=0;points=[[0,0,0],[0.25,0,0],[0.5,0,0],[0.75,0,0],[1,0,0],[0,1,0],[0.25,1,0],[0.5,1,0],[0.75,1,0],[1,1,0],[0,0.25,0],[0,0.5,0],[0,0.75,0],[1,0.25,0],[1,0.5,0],[1,0.75,0]];outlineConnect=0;fontColor=#232F3E;gradientColor=#945DF2;gradientDirection=north;fillColor=#5A30B5;strokeColor=#ffffff;dashed=0;verticalLabelPosition=bottom;verticalAlign=top;align=center;html=1;fontSize=12;fontStyle=0;aspect=fixed;shape=mxgraph.aws4.resourceIcon;resIcon=mxgraph.aws4.cloudfront;fontFamily=Tahoma;" vertex="1" parent="1">
          <mxGeometry x="552" y="767" width="78" height="78" as="geometry" />
        </mxCell>
        <mxCell id="Dzdg2uz1OPXHUZHbZTjD-117" value="" style="endArrow=none;html=1;rounded=0;fontFamily=Tahoma;fontColor=#FF8000;strokeWidth=7;strokeColor=#00FFFF;" edge="1" parent="1">
          <mxGeometry width="50" height="50" relative="1" as="geometry">
            <mxPoint x="991.5" y="627" as="sourcePoint" />
            <mxPoint x="1041.5" y="627" as="targetPoint" />
          </mxGeometry>
        </mxCell>
        <mxCell id="Dzdg2uz1OPXHUZHbZTjD-118" value="" style="endArrow=none;html=1;rounded=0;fontFamily=Tahoma;fontColor=#000000;strokeWidth=7;strokeColor=#FF0000;fontStyle=1;labelPosition=right;verticalLabelPosition=middle;align=left;verticalAlign=middle;spacingRight=10;" edge="1" parent="1">
          <mxGeometry width="50" height="50" relative="1" as="geometry">
            <mxPoint x="990.5" y="580" as="sourcePoint" />
            <mxPoint x="1040.5" y="580" as="targetPoint" />
            <Array as="points">
              <mxPoint x="1020.5" y="580" />
            </Array>
          </mxGeometry>
        </mxCell>
        <mxCell id="Dzdg2uz1OPXHUZHbZTjD-119" value="토큰 필요 요청" style="text;html=1;strokeColor=none;fillColor=none;align=center;verticalAlign=middle;whiteSpace=wrap;rounded=0;fontFamily=Tahoma;fontColor=#000000;fontStyle=1;fontSize=16;" vertex="1" parent="1">
          <mxGeometry x="1044.5" y="571.5" width="113" height="30" as="geometry" />
        </mxCell>
        <mxCell id="Dzdg2uz1OPXHUZHbZTjD-120" value="토큰 없는 요청" style="text;html=1;strokeColor=none;fillColor=none;align=center;verticalAlign=middle;whiteSpace=wrap;rounded=0;fontFamily=Tahoma;fontColor=#000000;fontStyle=1;fontSize=16;" vertex="1" parent="1">
          <mxGeometry x="1038.5" y="611.5" width="123" height="30" as="geometry" />
        </mxCell>
        <mxCell id="Dzdg2uz1OPXHUZHbZTjD-121" value="member" style="outlineConnect=0;dashed=0;verticalLabelPosition=bottom;verticalAlign=top;align=center;html=1;shape=mxgraph.aws3.ec2;fillColor=#F58534;gradientColor=none;fontFamily=Tahoma;strokeColor=#FF0000;strokeWidth=4;" vertex="1" parent="1">
          <mxGeometry x="-48.5" y="645.5" width="76.5" height="93" as="geometry" />
        </mxCell>
        <mxCell id="Dzdg2uz1OPXHUZHbZTjD-124" value="system" style="outlineConnect=0;dashed=0;verticalLabelPosition=bottom;verticalAlign=top;align=center;html=1;shape=mxgraph.aws3.ec2;fillColor=#F58534;gradientColor=none;fontFamily=Tahoma;strokeColor=#FF0000;strokeWidth=4;" vertex="1" parent="1">
          <mxGeometry x="-48.5" y="915.5" width="76.5" height="93" as="geometry" />
        </mxCell>
        <mxCell id="Dzdg2uz1OPXHUZHbZTjD-126" value="auth" style="outlineConnect=0;dashed=0;verticalLabelPosition=bottom;verticalAlign=top;align=center;html=1;shape=mxgraph.aws3.ec2;fillColor=#F58534;gradientColor=none;fontFamily=Tahoma;strokeColor=#FF0000;strokeWidth=4;" vertex="1" parent="1">
          <mxGeometry x="-48.5" y="781.5" width="76.5" height="93" as="geometry" />
        </mxCell>
        <mxCell id="Dzdg2uz1OPXHUZHbZTjD-129" value="" style="endArrow=none;html=1;rounded=0;fontFamily=Tahoma;fontColor=#FF8000;strokeWidth=7;strokeColor=#00994D;" edge="1" parent="1">
          <mxGeometry width="50" height="50" relative="1" as="geometry">
            <mxPoint x="990.5" y="666" as="sourcePoint" />
            <mxPoint x="1040.5" y="666" as="targetPoint" />
          </mxGeometry>
        </mxCell>
        <mxCell id="Dzdg2uz1OPXHUZHbZTjD-130" value="모든 요청" style="text;html=1;strokeColor=none;fillColor=none;align=left;verticalAlign=middle;whiteSpace=wrap;rounded=0;fontFamily=Tahoma;fontColor=#000000;fontStyle=1;fontSize=16;" vertex="1" parent="1">
          <mxGeometry x="1045.5" y="651.5" width="123" height="30" as="geometry" />
        </mxCell>
        <mxCell id="Dzdg2uz1OPXHUZHbZTjD-131" value="etc" style="outlineConnect=0;dashed=0;verticalLabelPosition=bottom;verticalAlign=top;align=center;html=1;shape=mxgraph.aws3.worker;fillColor=#D9A741;gradientColor=none;fontFamily=Tahoma;fontSize=16;fontColor=#000000;strokeColor=#33001A;strokeWidth=4;" vertex="1" parent="1">
          <mxGeometry x="-146.75" y="-220" width="60" height="63" as="geometry" />
        </mxCell>
        <mxCell id="Dzdg2uz1OPXHUZHbZTjD-132" value="skilljar" style="outlineConnect=0;dashed=0;verticalLabelPosition=bottom;verticalAlign=top;align=center;html=1;shape=mxgraph.aws3.worker;fillColor=#D9A741;gradientColor=none;fontFamily=Tahoma;fontSize=16;fontColor=#000000;strokeColor=#33001A;strokeWidth=4;" vertex="1" parent="1">
          <mxGeometry x="-240" y="-220" width="60" height="63" as="geometry" />
        </mxCell>
        <mxCell id="Dzdg2uz1OPXHUZHbZTjD-133" value="zendesk" style="outlineConnect=0;dashed=0;verticalLabelPosition=bottom;verticalAlign=top;align=center;html=1;shape=mxgraph.aws3.worker;fillColor=#D9A741;gradientColor=none;fontFamily=Tahoma;fontSize=16;fontColor=#000000;strokeColor=#33001A;strokeWidth=4;" vertex="1" parent="1">
          <mxGeometry x="-333.75" y="-220" width="60" height="63" as="geometry" />
        </mxCell>
        <mxCell id="Dzdg2uz1OPXHUZHbZTjD-135" value="" style="endArrow=classic;html=1;rounded=0;fontFamily=Tahoma;fontColor=#FF0000;strokeWidth=3;strokeColor=#FF0000;" edge="1" parent="1">
          <mxGeometry width="50" height="50" relative="1" as="geometry">
            <mxPoint x="100.75" y="-162" as="sourcePoint" />
            <mxPoint x="-32.25" y="-162" as="targetPoint" />
          </mxGeometry>
        </mxCell>
        <mxCell id="Dzdg2uz1OPXHUZHbZTjD-137" value="" style="endArrow=classic;html=1;rounded=0;fontFamily=Tahoma;fontColor=#FF0000;strokeWidth=3;strokeColor=#00FFFF;" edge="1" parent="1">
          <mxGeometry width="50" height="50" relative="1" as="geometry">
            <mxPoint x="-30.5" y="-206" as="sourcePoint" />
            <mxPoint x="102.5" y="-206" as="targetPoint" />
          </mxGeometry>
        </mxCell>
        <mxCell id="Dzdg2uz1OPXHUZHbZTjD-139" value="" style="strokeWidth=1;shadow=0;dashed=0;align=center;html=1;shape=mxgraph.mockup.text.callout;linkText=;textSize=17;textColor=#666666;callDir=SW;callStyle=line;fontSize=17;fontColor=#666666;align=left;verticalAlign=bottom;strokeColor=#666666;fontFamily=Tahoma;fillColor=none;" vertex="1" parent="1">
          <mxGeometry x="-206.75" y="-139" width="260" height="130" as="geometry" />
        </mxCell>
        <mxCell id="Dzdg2uz1OPXHUZHbZTjD-140" value="rpm to third-party" style="fillColor=none;strokeColor=none;html=1;fontSize=11;fontStyle=0;align=left;fontColor=#596780;fontStyle=1;fontSize=11;fontFamily=Tahoma;" vertex="1" parent="1">
          <mxGeometry x="-348.75" y="-78" width="240" height="20" as="geometry" />
        </mxCell>
        <mxCell id="Dzdg2uz1OPXHUZHbZTjD-141" value="외부 업체 통신" style="rounded=1;arcSize=9;align=left;spacingLeft=5;strokeColor=#4C9AFF;html=1;strokeWidth=2;fontSize=12;fontFamily=Tahoma;fontColor=#FF0000;fillColor=none;" vertex="1" parent="1">
          <mxGeometry x="-348.75" y="-53" width="212.25" height="33" as="geometry" />
        </mxCell>
        <mxCell id="Dzdg2uz1OPXHUZHbZTjD-142" value="mail &amp;amp; sms" style="outlineConnect=0;dashed=0;verticalLabelPosition=bottom;verticalAlign=top;align=center;html=1;shape=mxgraph.aws3.worker;fillColor=#D9A741;gradientColor=none;fontFamily=Tahoma;fontSize=16;fontColor=#000000;strokeColor=#33001A;strokeWidth=4;" vertex="1" parent="1">
          <mxGeometry x="-428.75" y="-220" width="60" height="63" as="geometry" />
        </mxCell>
        <mxCell id="Dzdg2uz1OPXHUZHbZTjD-146" value="" style="endArrow=none;html=1;rounded=0;fontFamily=Tahoma;fontSize=16;fontColor=#000000;strokeColor=#00994D;strokeWidth=3;" edge="1" parent="1">
          <mxGeometry width="50" height="50" relative="1" as="geometry">
            <mxPoint x="-60" y="695.5" as="sourcePoint" />
            <mxPoint x="-232" y="796.9976819194972" as="targetPoint" />
          </mxGeometry>
        </mxCell>
        <mxCell id="Dzdg2uz1OPXHUZHbZTjD-149" value="" style="endArrow=none;html=1;rounded=0;fontFamily=Tahoma;fontSize=16;fontColor=#000000;strokeColor=#00994D;strokeWidth=3;" edge="1" parent="1">
          <mxGeometry width="50" height="50" relative="1" as="geometry">
            <mxPoint x="-60" y="825.5" as="sourcePoint" />
            <mxPoint x="-230" y="806.9976819194972" as="targetPoint" />
          </mxGeometry>
        </mxCell>
        <mxCell id="Dzdg2uz1OPXHUZHbZTjD-150" value="" style="endArrow=none;html=1;rounded=0;fontFamily=Tahoma;fontSize=16;fontColor=#000000;strokeColor=#00FFFF;strokeWidth=3;" edge="1" parent="1">
          <mxGeometry width="50" height="50" relative="1" as="geometry">
            <mxPoint x="-230" y="820.5" as="sourcePoint" />
            <mxPoint x="-60" y="955.5" as="targetPoint" />
          </mxGeometry>
        </mxCell>
        <mxCell id="Dzdg2uz1OPXHUZHbZTjD-161" value="product" style="outlineConnect=0;dashed=0;verticalLabelPosition=bottom;verticalAlign=top;align=center;html=1;shape=mxgraph.aws3.ec2;fillColor=#F58534;gradientColor=none;fontFamily=Tahoma;strokeColor=#FF0000;strokeWidth=4;" vertex="1" parent="1">
          <mxGeometry x="383.5" y="645.5" width="76.5" height="93" as="geometry" />
        </mxCell>
        <mxCell id="Dzdg2uz1OPXHUZHbZTjD-162" value="system" style="outlineConnect=0;dashed=0;verticalLabelPosition=bottom;verticalAlign=top;align=center;html=1;shape=mxgraph.aws3.ec2;fillColor=#F58534;gradientColor=none;fontFamily=Tahoma;strokeColor=#FF0000;strokeWidth=4;" vertex="1" parent="1">
          <mxGeometry x="383.5" y="915.5" width="76.5" height="93" as="geometry" />
        </mxCell>
        <mxCell id="Dzdg2uz1OPXHUZHbZTjD-163" value="auth" style="outlineConnect=0;dashed=0;verticalLabelPosition=bottom;verticalAlign=top;align=center;html=1;shape=mxgraph.aws3.ec2;fillColor=#F58534;gradientColor=none;fontFamily=Tahoma;strokeColor=#FF0000;strokeWidth=4;" vertex="1" parent="1">
          <mxGeometry x="383.5" y="781.5" width="76.5" height="93" as="geometry" />
        </mxCell>
        <mxCell id="Dzdg2uz1OPXHUZHbZTjD-164" value="" style="endArrow=none;html=1;rounded=0;fontFamily=Tahoma;fontSize=16;fontColor=#000000;strokeColor=#00FFFF;strokeWidth=3;" edge="1" parent="1">
          <mxGeometry width="50" height="50" relative="1" as="geometry">
            <mxPoint x="372" y="695.5" as="sourcePoint" />
            <mxPoint x="200" y="796.9976819194972" as="targetPoint" />
          </mxGeometry>
        </mxCell>
        <mxCell id="Dzdg2uz1OPXHUZHbZTjD-165" value="" style="endArrow=none;html=1;rounded=0;fontFamily=Tahoma;fontSize=16;fontColor=#000000;strokeColor=#00994D;strokeWidth=3;" edge="1" parent="1">
          <mxGeometry width="50" height="50" relative="1" as="geometry">
            <mxPoint x="372" y="825.5" as="sourcePoint" />
            <mxPoint x="202" y="806.9976819194972" as="targetPoint" />
          </mxGeometry>
        </mxCell>
        <mxCell id="Dzdg2uz1OPXHUZHbZTjD-166" value="" style="endArrow=none;html=1;rounded=0;fontFamily=Tahoma;fontSize=16;fontColor=#000000;strokeColor=#00FFFF;strokeWidth=3;" edge="1" parent="1">
          <mxGeometry width="50" height="50" relative="1" as="geometry">
            <mxPoint x="202" y="820.5" as="sourcePoint" />
            <mxPoint x="372" y="955.5" as="targetPoint" />
          </mxGeometry>
        </mxCell>
        <mxCell id="Dzdg2uz1OPXHUZHbZTjD-167" value="product" style="outlineConnect=0;dashed=0;verticalLabelPosition=bottom;verticalAlign=top;align=center;html=1;shape=mxgraph.aws3.ec2;fillColor=#F58534;gradientColor=none;fontFamily=Tahoma;strokeColor=#FF0000;strokeWidth=4;" vertex="1" parent="1">
          <mxGeometry x="823.5" y="645.5" width="76.5" height="93" as="geometry" />
        </mxCell>
        <mxCell id="Dzdg2uz1OPXHUZHbZTjD-168" value="system" style="outlineConnect=0;dashed=0;verticalLabelPosition=bottom;verticalAlign=top;align=center;html=1;shape=mxgraph.aws3.ec2;fillColor=#F58534;gradientColor=none;fontFamily=Tahoma;strokeColor=#FF0000;strokeWidth=4;" vertex="1" parent="1">
          <mxGeometry x="823.5" y="915.5" width="76.5" height="93" as="geometry" />
        </mxCell>
        <mxCell id="Dzdg2uz1OPXHUZHbZTjD-169" value="auth" style="outlineConnect=0;dashed=0;verticalLabelPosition=bottom;verticalAlign=top;align=center;html=1;shape=mxgraph.aws3.ec2;fillColor=#F58534;gradientColor=none;fontFamily=Tahoma;strokeColor=#FF0000;strokeWidth=4;" vertex="1" parent="1">
          <mxGeometry x="823.5" y="781.5" width="76.5" height="93" as="geometry" />
        </mxCell>
        <mxCell id="Dzdg2uz1OPXHUZHbZTjD-170" value="" style="endArrow=none;html=1;rounded=0;fontFamily=Tahoma;fontSize=16;fontColor=#000000;strokeColor=#FF0000;strokeWidth=3;" edge="1" parent="1">
          <mxGeometry width="50" height="50" relative="1" as="geometry">
            <mxPoint x="812" y="695.5" as="sourcePoint" />
            <mxPoint x="640" y="796.9976819194972" as="targetPoint" />
          </mxGeometry>
        </mxCell>
        <mxCell id="Dzdg2uz1OPXHUZHbZTjD-171" value="" style="endArrow=none;html=1;rounded=0;fontFamily=Tahoma;fontSize=16;fontColor=#000000;strokeColor=#00994D;strokeWidth=3;" edge="1" parent="1">
          <mxGeometry width="50" height="50" relative="1" as="geometry">
            <mxPoint x="812" y="825.5" as="sourcePoint" />
            <mxPoint x="642" y="806.9976819194972" as="targetPoint" />
          </mxGeometry>
        </mxCell>
        <mxCell id="Dzdg2uz1OPXHUZHbZTjD-172" value="" style="endArrow=none;html=1;rounded=0;fontFamily=Tahoma;fontSize=16;fontColor=#000000;strokeColor=#FF0000;strokeWidth=3;" edge="1" parent="1">
          <mxGeometry width="50" height="50" relative="1" as="geometry">
            <mxPoint x="642" y="820.5" as="sourcePoint" />
            <mxPoint x="812" y="955.5" as="targetPoint" />
          </mxGeometry>
        </mxCell>
        <mxCell id="Dzdg2uz1OPXHUZHbZTjD-174" value="RPM 프로젝트 아키텍처 &amp;amp; 흐름도" style="text;strokeColor=none;fillColor=none;html=1;fontSize=24;fontStyle=1;verticalAlign=middle;align=center;fontFamily=Tahoma;fontColor=#000000;" vertex="1" parent="1">
          <mxGeometry x="125.5" y="-1141" width="505.5" height="100" as="geometry" />
        </mxCell>
      </root>
    </mxGraphModel>
  </diagram>
</mxfile>
